/* XPM */
static char * fynn_xpm[] = {
	"20 20 2 1",
	" 	c None",
	".	c #61afef",
	"                    ",
	"                ....",
	"       ...... ..... ",
	"     .............  ",
	"   ..............   ",
	"      ............  ",
	" ..   ............. ",
	"................... ",
	"....................",
	"      ...    .......",
	"       ...     .....",
	".       ..      ....",
	"..       .      ....",
	" ...             .. ",
	" ........        .. ",
	"  .......        .  ",
	"   ........         ",
	"     ..........     ",
	"       ......       ",
	"                    "
};
